<svg xmlns="http://www.w3.org/2000/svg" xmlns:xlink="http://www.w3.org/1999/xlink" width="1920" height="1165" viewBox="0 0 1920 1165">
  <defs>
    <style>
      .cls-1 {
        fill: #fff;
        stroke: #707070;
      }

      .cls-2 {
        clip-path: url(#clip-path);
      }

      .cls-3 {
        fill: url(#linear-gradient);
      }
    </style>
    <clipPath id="clip-path">
      <rect id="Rectangle_27" data-name="Rectangle 27" class="cls-1" width="1920" height="1165" transform="translate(0 2022)"/>
    </clipPath>
    <linearGradient id="linear-gradient" x1="0.826" y1="0.14" x2="0.532" gradientUnits="objectBoundingBox">
      <stop offset="0" stop-color="#987bff"/>
      <stop offset="1" stop-color="#0b95ff"/>
    </linearGradient>
  </defs>
  <g id="Mask_Group_3" data-name="Mask Group 3" class="cls-2" transform="translate(0 -2022)">
    <g id="Group_26" data-name="Group 26" transform="translate(-3377.024 2615.229) rotate(-3)">
      <path id="Union_1" data-name="Union 1" class="cls-3" d="M0,6971v-6.359c0-544.722,441.529-986.318,986.181-986.318h698.284V4762.941l117.717,68.4a1749.992,1749.992,0,0,1,866.887,1512.881c0,346.17-280.583,626.785-626.709,626.785Zm6187.533-6.359H2737.467a932.223,932.223,0,0,0,243.359-626.785,2067.208,2067.208,0,0,0-33.4-359.533H5614.914c115.27.057,209.695-91.565,213.132-206.8V4190.237c.071-2.147.111-4.307.1-6.455-.04-117.732-95.511-213.135-213.228-213.079H2949.026L2560.9,2984.385H6187.533c346.126,0,626.708,280.632,626.708,626.786V6344.217c-3.492,343.683-283.024,620.44-626.679,620.425ZM636.246,3986.62c-347.7.025-631.041-279.1-636.246-626.788V626.79C0,280.615,280.583,0,626.71,0H2519.552A932.317,932.317,0,0,0,2279.36,633.15a2084.888,2084.888,0,0,0,33.4,359.528H1199.329c-117.722,0-213.148,95.431-213.148,213.164V2779.175c-.136,3.765-.18,7.545-.124,11.31,1.848,117.717,98.748,211.651,216.449,209.818h954.377L2545,3986.62ZM3461.2,2138.077A1749.964,1749.964,0,0,1,2592.72,626.79C2592.72,280.615,2873.3,0,3219.426,0H6814.242c0,544.721-441.528,986.306-986.2,986.306H3578.9V2208.061Z" transform="translate(-357.005 -254.671)"/>
    </g>
  </g>
</svg>
