<svg id="Layer_1" data-name="Layer 1" xmlns="http://www.w3.org/2000/svg" viewBox="0 0 289.32 111.63"><defs><style>.cls-1{fill:#191f50;}.cls-2{fill:#2160ad;}</style></defs><title>Logos</title><path class="cls-1" d="M68.56,65.09V61.87H82.4a2.81,2.81,0,0,0,2-.66,2.3,2.3,0,0,0,.69-1.75,2.24,2.24,0,0,0-.69-1.79,3,3,0,0,0-2-.6H73.92a6.78,6.78,0,0,1-2.35-.39,5.11,5.11,0,0,1-1.77-1.1,4.56,4.56,0,0,1-1.12-1.66,5.54,5.54,0,0,1-.39-2.11,5.75,5.75,0,0,1,.36-2.06,4.41,4.41,0,0,1,1.09-1.64A5.16,5.16,0,0,1,71.53,47a7.13,7.13,0,0,1,2.44-.4H87.23v3.23H74a2.34,2.34,0,0,0-1.72.6,2.19,2.19,0,0,0-.61,1.66,2.13,2.13,0,0,0,.62,1.65,2.36,2.36,0,0,0,1.69.58H82.4a6.18,6.18,0,0,1,4.28,1.32,5.16,5.16,0,0,1,1.46,4,6.51,6.51,0,0,1-.35,2.15,4.76,4.76,0,0,1-1.07,1.72,4.85,4.85,0,0,1-1.79,1.13,7.19,7.19,0,0,1-2.53.4Z"/><path class="cls-1" d="M99.34,65.09a8.73,8.73,0,0,1-6.41-2.7,8.89,8.89,0,0,1-1.88-3,10.18,10.18,0,0,1-.67-3.74,9.79,9.79,0,0,1,.67-3.7,8.19,8.19,0,0,1,1.88-2.86,8.36,8.36,0,0,1,2.84-1.83,9.65,9.65,0,0,1,3.57-.65h4.49a9.86,9.86,0,0,1,3.67.66A8.2,8.2,0,0,1,112.21,52a9.9,9.9,0,0,1,.66,3.67,10.18,10.18,0,0,1-.67,3.74,9.05,9.05,0,0,1-1.88,3,8.73,8.73,0,0,1-2.86,2,9,9,0,0,1-3.63.72Zm4.49-3.22a5.78,5.78,0,0,0,2.34-.46A5.61,5.61,0,0,0,108,60.16a5.75,5.75,0,0,0,1.21-1.92,6.83,6.83,0,0,0,.43-2.41,6.65,6.65,0,0,0-.43-2.4A5.43,5.43,0,0,0,108,51.54a5.58,5.58,0,0,0-1.84-1.24,6.13,6.13,0,0,0-2.34-.44H99.34a6,6,0,0,0-2.3.44,5.36,5.36,0,0,0-1.81,1.24A5.67,5.67,0,0,0,94,53.41a6.51,6.51,0,0,0-.43,2.42A6.61,6.61,0,0,0,94,58.24a5.89,5.89,0,0,0,1.2,1.92A5.38,5.38,0,0,0,97,61.41a5.63,5.63,0,0,0,2.3.46Z"/><path class="cls-1" d="M115.49,65.09V46.63h15.66v3.23H118.69V65.09Zm5.56-7.64V54.63h9.34v2.82Z"/><path class="cls-1" d="M140.34,65.09V49.86h-7V46.63h17.24v3.23h-7V65.09Z"/><path class="cls-2" d="M152.71,65.09V61.87h13.84a2.8,2.8,0,0,0,2-.66,2.28,2.28,0,0,0,.7-1.75,2.21,2.21,0,0,0-.7-1.79,3,3,0,0,0-2-.6h-8.48a6.7,6.7,0,0,1-2.35-.39,5.06,5.06,0,0,1-1.78-1.1,4.68,4.68,0,0,1-1.12-1.66,5.91,5.91,0,0,1,0-4.17,4.29,4.29,0,0,1,1.09-1.64A5.07,5.07,0,0,1,155.68,47a7.05,7.05,0,0,1,2.44-.4h13.25v3.23H158.12a2.36,2.36,0,0,0-1.73.6,2.53,2.53,0,0,0,0,3.31,2.38,2.38,0,0,0,1.69.58h8.46a6.2,6.2,0,0,1,4.28,1.32,5.16,5.16,0,0,1,1.46,4,6.26,6.26,0,0,1-.36,2.15,4.63,4.63,0,0,1-1.07,1.72,4.85,4.85,0,0,1-1.79,1.13,7.17,7.17,0,0,1-2.52.4Z"/><path class="cls-2" d="M175.05,65.17V46.63h3.23V65.17Zm14.86,0v-8h-9.3V54.28h9.3V46.63h3.22V65.17Z"/><path class="cls-2" d="M215.58,65.09l-2.77-4.64h-8.73l1.52-2.62h5.66l-4.11-6.9-8.38,14.16h-3.68L205.7,47.42a2.61,2.61,0,0,1,.66-.76,1.47,1.47,0,0,1,.91-.28,1.45,1.45,0,0,1,.91.28,2.56,2.56,0,0,1,.64.76l10.64,17.67Z"/><path class="cls-2" d="M238.58,65.09,233.91,60H227V57.12h7.7a3.48,3.48,0,0,0,2.64-.95,3.91,3.91,0,0,0,.89-2.76,3.49,3.49,0,0,0-.93-2.67,3.62,3.62,0,0,0-2.6-.88H224.64V65.09h-3.2V46.63H234.7a7.92,7.92,0,0,1,2.81.47,5.89,5.89,0,0,1,2.11,1.35,5.69,5.69,0,0,1,1.32,2.12,7.93,7.93,0,0,1,.46,2.79,7.06,7.06,0,0,1-1,3.88,5.58,5.58,0,0,1-2.81,2.24l5.56,5.61Z"/><path class="cls-2" d="M244.83,65.09V46.63h3.22V65.09Zm15.21,0L249.7,57a1.47,1.47,0,0,1-.54-.65,1.94,1.94,0,0,1-.12-.7,1.84,1.84,0,0,1,.15-.76,2.21,2.21,0,0,1,.66-.71l9.78-7.52h4.95l-12.08,9L265,65.09Z"/><path class="cls-2" d="M54.15,39.12H37a3,3,0,0,0-3,3h0a8.36,8.36,0,0,0,4.15,7.22l.56.33V43.83H49.44a4.71,4.71,0,0,0,4.71-4.71Z"/><path class="cls-1" d="M26.3,52.41V44.85a1,1,0,0,1,1-1h5.33a9.71,9.71,0,0,1-.16-1.71,4.47,4.47,0,0,1,1.16-3H24.58a3,3,0,0,0-3,3V55.18a3,3,0,0,0,3,3l9.16,0L31.9,53.43H27.32A1,1,0,0,1,26.3,52.41Z"/><path class="cls-1" d="M21.59,72.43h9.76a3,3,0,0,0,3-3h0a8.38,8.38,0,0,0-4.14-7.22l-.57-.33v5.84H26.3a4.71,4.71,0,0,0-4.71,4.71Z"/><path class="cls-2" d="M49.44,59.15V66.7a1,1,0,0,1-1,1H35.67a9.71,9.71,0,0,1,.16,1.71,4.45,4.45,0,0,1-1.16,3H51.15a3,3,0,0,0,3-3V56.38a3,3,0,0,0-3-3l-17.32,0,1.85,4.71H48.42A1,1,0,0,1,49.44,59.15Z"/></svg>