<svg id="Layer_1" data-name="Layer 1" xmlns="http://www.w3.org/2000/svg" viewBox="0 0 114.24 111.63"><defs><style>.cls-1{fill:#2160ad;}.cls-2{fill:#191f50;}</style></defs><path class="cls-1" d="M105.2,8.42H55.06a8.74,8.74,0,0,0-8.74,8.74h0A24.43,24.43,0,0,0,58.43,38.25l1.64,1v-17H91.45A13.76,13.76,0,0,0,105.2,8.42Z"/><path class="cls-2" d="M23.91,47.19v-22a3,3,0,0,1,3-3H42.45a28.73,28.73,0,0,1-.46-5,13,13,0,0,1,3.38-8.74H18.9a8.74,8.74,0,0,0-8.74,8.74V55.27A8.74,8.74,0,0,0,18.93,64l26.74-.09L40.26,50.17H26.89A3,3,0,0,1,23.91,47.19Z"/><path class="cls-2" d="M10.16,105.63H38.65a8.74,8.74,0,0,0,8.74-8.74h0A24.43,24.43,0,0,0,35.28,75.8l-1.64-1v17H23.91a13.76,13.76,0,0,0-13.75,13.75Z"/><path class="cls-1" d="M91.45,66.86v22a3,3,0,0,1-3,3H51.26a27.79,27.79,0,0,1,.46,5,13,13,0,0,1-3.38,8.74H96.46a8.74,8.74,0,0,0,8.74-8.74V58.77A8.75,8.75,0,0,0,96.43,50l-50.55.1,5.41,13.75H88.47A3,3,0,0,1,91.45,66.86Z"/></svg>